<?xml version="1.0" standalone="no"?>
<!DOCTYPE svg PUBLIC "-//W3C//DTD SVG 20010904//EN"
 "http://www.w3.org/TR/2001/REC-SVG-20010904/DTD/svg10.dtd">
<svg version="1.0" xmlns="http://www.w3.org/2000/svg"
 width="2284.000000pt" height="2284.000000pt" viewBox="0 0 2284.000000 2284.000000"
 preserveAspectRatio="xMidYMid meet">
<metadata>
Created by potrace 1.11, written by Peter Selinger 2001-2013
</metadata>
<g transform="translate(0.000000,2284.000000) scale(0.100000,-0.100000)"
fill="#000000" stroke="none">
<path d="M11035 19929 c-613 -41 -1081 -110 -1577 -235 -1127 -282 -2161 -790
-3068 -1508 -466 -368 -944 -843 -1308 -1297 -981 -1228 -1575 -2669 -1741
-4224 -77 -715 -67 -1285 35 -2020 198 -1425 805 -2821 1718 -3950 371 -459
869 -949 1321 -1301 1233 -960 2661 -1535 4195 -1689 589 -59 1051 -59 1640 0
1534 154 2965 730 4194 1688 488 380 1019 911 1392 1392 891 1146 1455 2467
1648 3860 102 735 112 1305 35 2020 -166 1555 -760 2996 -1741 4224 -364 454
-842 929 -1308 1297 -1160 918 -2547 1501 -4005 1683 -503 63 -1044 86 -1430
60z m405 -806 c0 -10 7 -87 15 -172 8 -85 13 -156 12 -158 -2 -1 -176 -19
-387 -38 -211 -19 -386 -37 -388 -40 -2 -2 -1 -52 3 -110 6 -99 8 -105 28
-105 12 0 166 14 342 30 176 16 327 30 336 30 14 0 18 -25 29 -155 7 -86 10
-158 7 -161 -3 -3 -160 -20 -349 -38 l-343 -32 3 -109 c2 -61 7 -113 11 -118
4 -4 182 9 395 29 213 19 390 33 393 31 6 -7 37 -336 32 -342 -4 -4 -1192
-115 -1196 -112 -5 6 -133 1470 -129 1475 6 5 1077 108 1154 111 24 1 32 -3
32 -16z m849 -21 l205 -37 120 -307 c67 -169 124 -308 128 -310 4 -2 95 96
203 217 108 121 209 232 223 247 l27 27 207 -38 c115 -21 210 -40 213 -43 6
-6 -252 -1448 -260 -1456 -5 -6 -382 60 -395 68 -4 3 26 187 66 410 41 223 73
408 71 412 -1 4 -107 -106 -236 -243 -129 -137 -237 -246 -241 -242 -4 4 -65
146 -136 315 -71 169 -130 305 -132 303 -3 -3 -150 -800 -152 -821 0 0 -89 16
-197 36 -195 35 -198 36 -196 60 0 14 58 339 127 723 69 384 126 702 126 708
0 13 -1 13 229 -29z m-2569 -244 c-1 -144 -55 -1517 -60 -1521 -15 -12 -353
-126 -360 -122 -14 9 -1072 1197 -1068 1200 2 1 99 37 217 79 174 63 216 75
226 64 7 -7 149 -179 316 -383 l304 -369 5 498 5 498 200 73 c110 40 203 73
208 74 4 1 7 -41 7 -91z m5084 -498 c289 -140 526 -259 526 -264 0 -19 -144
-306 -154 -305 -6 0 -166 76 -356 168 l-345 168 -47 -91 c-26 -50 -47 -96 -47
-102 -1 -6 141 -80 314 -164 173 -85 315 -157 315 -162 0 -7 -127 -278 -134
-285 -2 -2 -142 64 -312 146 -170 82 -315 151 -322 153 -9 2 -32 -35 -63 -100
l-48 -103 187 -91 c103 -50 265 -128 360 -174 l172 -83 -77 -156 c-43 -85 -81
-155 -84 -155 -8 0 -1062 510 -1071 519 -4 4 96 220 223 481 127 261 273 562
325 668 51 107 98 192 103 190 5 -1 245 -118 535 -258z m-7101 -491 c281 -44
511 -238 611 -516 29 -84 31 -95 31 -243 0 -148 -2 -159 -31 -242 -127 -355
-473 -589 -837 -565 -274 18 -515 181 -637 432 -55 113 -74 197 -74 335 0 88
5 133 23 194 35 125 102 245 188 337 197 209 466 308 726 268z m8295 -220
c100 -86 142 -128 142 -143 0 -11 -9 -213 -21 -449 -11 -235 -19 -447 -17
-471 l3 -43 248 289 c137 159 253 288 257 286 13 -5 300 -251 300 -257 0 -5
-916 -1079 -954 -1119 -10 -10 -37 9 -137 94 -68 58 -130 111 -137 118 -10 10
-7 111 12 521 14 280 23 511 21 513 -1 2 -121 -135 -265 -303 l-262 -305 -31
26 c-245 206 -277 236 -264 253 30 42 951 1111 957 1111 3 0 70 -55 148 -121z
m-3913 -658 c240 -33 404 -66 720 -146 125 -32 407 -126 537 -179 48 -20 93
-36 99 -36 18 0 490 -229 524 -254 17 -12 73 -46 125 -76 96 -54 395 -247 421
-272 8 -7 73 -59 146 -116 345 -268 662 -588 921 -929 34 -46 73 -94 85 -107
13 -13 29 -37 37 -53 8 -15 20 -33 25 -39 20 -21 153 -232 237 -374 80 -135
284 -544 293 -586 2 -11 28 -80 58 -154 57 -144 137 -376 142 -413 1 -12 17
-76 34 -142 44 -166 76 -309 100 -450 28 -160 53 -350 51 -383 -1 -15 -1 -31
0 -37 1 -5 1 -35 0 -66 -1 -32 3 -60 9 -64 15 -9 15 -621 0 -630 -6 -4 -10
-32 -9 -64 1 -31 1 -60 0 -66 -1 -5 -1 -22 0 -36 0 -14 -6 -81 -15 -150 -30
-230 -71 -440 -136 -684 -17 -66 -33 -130 -34 -142 -5 -37 -85 -269 -142 -413
-30 -74 -56 -143 -58 -154 -9 -41 -213 -450 -293 -586 -82 -140 -216 -352
-237 -374 -5 -6 -17 -24 -25 -39 -8 -16 -24 -40 -37 -53 -12 -13 -51 -61 -85
-107 -274 -360 -615 -699 -988 -982 -36 -27 -71 -55 -77 -61 -29 -28 -316
-214 -413 -269 -58 -32 -118 -68 -135 -80 -33 -25 -506 -255 -523 -255 -6 0
-70 -24 -144 -53 -223 -90 -381 -137 -728 -219 -268 -63 -573 -108 -731 -108
-54 0 -101 -4 -104 -10 -4 -6 -117 -10 -305 -10 -188 0 -301 4 -305 10 -3 6
-50 10 -104 10 -158 0 -463 45 -731 108 -353 83 -485 123 -713 213 -81 33
-153 59 -159 59 -17 0 -489 230 -523 255 -16 12 -77 48 -135 80 -97 54 -383
241 -413 268 -6 7 -71 58 -144 115 -345 268 -662 588 -921 929 -34 46 -73 94
-85 107 -13 13 -29 37 -37 53 -8 15 -19 33 -25 39 -20 21 -153 232 -237 374
-80 135 -284 544 -293 586 -2 11 -28 80 -58 154 -57 144 -137 376 -142 413 -1
12 -17 76 -34 142 -82 311 -165 781 -148 845 3 11 2 22 -3 25 -10 6 -10 884 0
890 4 2 5 16 3 29 -14 73 67 535 148 841 17 66 33 130 34 142 5 37 85 269 142
413 30 74 56 143 58 154 9 42 213 451 293 586 84 142 217 353 237 374 6 6 17
24 25 39 8 16 24 40 37 53 12 13 51 61 85 107 259 341 576 661 921 929 73 57
138 109 146 116 26 25 325 218 421 272 52 30 109 64 125 76 34 25 506 254 524
254 6 0 51 16 99 36 333 136 803 260 1214 320 180 26 365 33 798 29 339 -3
430 -7 555 -24z m-5481 -691 l586 -441 -120 -159 c-66 -88 -125 -160 -131
-160 -5 0 -156 111 -335 246 -179 135 -327 244 -330 241 -3 -2 47 -146 109
-318 l114 -314 -37 -3 c-21 -2 -174 6 -340 18 -167 11 -304 19 -305 18 -1 -2
148 -115 331 -253 183 -137 333 -253 333 -256 1 -9 -229 -314 -239 -317 -7 -2
-1134 836 -1189 884 -2 2 56 83 129 179 121 160 136 175 159 171 49 -9 631
-59 636 -55 2 3 -49 142 -115 310 -66 167 -120 307 -120 312 0 17 256 347 266
343 6 -2 275 -203 598 -446z m11066 -404 c194 -280 353 -515 354 -522 0 -7
-64 -58 -143 -113 l-144 -100 -125 180 c-88 126 -129 178 -140 174 -8 -3 -212
-143 -455 -311 -242 -169 -446 -307 -453 -308 -20 -2 -238 315 -228 331 5 7
209 152 454 322 248 172 445 315 444 323 -1 8 -54 90 -118 182 -64 93 -116
172 -114 178 2 5 66 53 143 107 129 91 141 97 156 82 9 -9 175 -245 369 -525z
m-12753 -3531 c96 -33 164 -77 235 -153 96 -104 138 -215 138 -367 0 -165 -44
-271 -159 -385 -116 -115 -224 -160 -386 -160 -162 0 -270 45 -386 160 -115
114 -159 220 -159 385 0 152 42 263 138 367 112 121 240 177 405 178 79 0 113
-5 174 -25z m13370 0 c96 -33 164 -77 235 -153 96 -104 138 -215 138 -367 0
-165 -44 -271 -159 -385 -116 -115 -224 -160 -386 -160 -162 0 -270 45 -386
160 -115 114 -159 220 -159 385 0 152 42 263 138 367 112 121 240 177 405 178
79 0 113 -5 174 -25z m-12474 -2784 l85 -163 -154 -257 -154 -256 297 -23
c163 -12 298 -24 298 -25 16 -24 176 -339 173 -342 -1 -1 -263 -137 -581 -300
-334 -172 -582 -294 -587 -289 -5 5 -43 76 -86 158 -67 129 -75 150 -62 160 9
6 155 83 326 171 171 88 308 163 304 166 -4 4 -133 19 -287 34 -154 15 -285
30 -291 34 -8 4 30 80 105 211 64 113 131 231 149 263 l33 58 -53 -27 c-29
-15 -178 -92 -332 -171 -153 -79 -279 -143 -281 -141 -1 2 -38 73 -83 159
l-82 157 583 300 c320 165 585 297 589 293 4 -3 45 -80 91 -170z m11689 4 l76
-135 -52 -35 c-113 -75 -246 -247 -246 -318 0 -26 27 -74 45 -81 56 -21 96 7
215 154 95 117 166 190 227 231 133 92 268 92 411 0 185 -120 225 -366 103
-627 -83 -177 -219 -331 -368 -418 -43 -25 -82 -46 -88 -46 -9 1 -136 264
-135 281 0 4 30 24 66 45 122 71 255 239 278 350 10 44 -8 83 -46 99 -30 12
-37 11 -72 -8 -23 -13 -84 -77 -152 -158 -132 -159 -185 -207 -274 -252 -55
-27 -75 -32 -140 -32 -66 0 -84 5 -152 37 -92 44 -155 104 -194 186 -36 75
-45 222 -19 321 51 196 191 393 355 499 36 23 70 42 76 42 5 0 44 -61 86 -135z
m-605 -979 l123 -94 -117 -153 c-81 -107 -113 -156 -107 -165 5 -8 180 -142
389 -300 209 -157 381 -289 383 -293 4 -12 -209 -286 -220 -283 -5 1 -182 133
-393 292 -211 160 -387 290 -392 290 -4 -1 -59 -68 -122 -151 -62 -83 -118
-148 -125 -146 -19 8 -241 178 -241 186 0 13 680 910 690 910 6 0 65 -42 132
-93z m-9936 -773 c63 -69 113 -131 111 -137 -8 -29 -597 -1286 -602 -1286 -4
0 -64 64 -135 141 l-128 142 57 114 56 114 -167 184 c-92 102 -171 185 -176
185 -5 0 -60 -18 -121 -41 l-111 -41 -64 68 c-113 122 -194 214 -190 217 8 7
1334 466 1345 467 6 0 63 -57 125 -127z m9157 -373 c84 -39 178 -134 223 -225
41 -83 50 -196 24 -285 -9 -30 -18 -64 -21 -75 -5 -19 14 -26 256 -89 143 -38
259 -73 258 -76 -3 -7 -307 -270 -311 -270 -1 0 -105 29 -232 64 l-229 64 -58
-50 c-32 -27 -58 -52 -58 -55 0 -3 56 -70 125 -151 69 -80 124 -149 123 -153
-4 -10 -262 -229 -270 -229 -9 0 -848 978 -848 989 0 9 434 386 525 455 162
124 344 156 493 86z m-8222 -490 c148 -102 294 -210 324 -241 96 -97 150 -216
150 -330 0 -165 -149 -368 -304 -414 -28 -9 -90 -15 -143 -15 l-93 0 0 -271
c0 -157 -4 -269 -9 -267 -5 2 -82 53 -170 113 l-161 110 0 241 0 240 -61 42
c-33 23 -64 42 -67 42 -4 0 -56 -72 -116 -160 l-109 -160 -26 16 c-115 74
-271 188 -269 196 2 5 168 249 368 543 l365 533 26 -16 c14 -10 147 -100 295
-202z m7089 -846 c286 -239 531 -445 543 -458 l24 -23 -166 -87 c-91 -47 -169
-86 -174 -86 -4 0 -51 36 -102 80 -52 44 -97 79 -100 78 -4 -2 -104 -52 -224
-113 l-217 -110 7 -95 c4 -52 8 -111 8 -130 l1 -34 -163 -84 c-90 -46 -165
-82 -168 -79 -5 5 -104 1318 -104 1384 l0 43 148 74 c81 41 152 75 157 75 6 1
244 -195 530 -435z m-5770 132 c280 -114 513 -210 517 -214 7 -7 -95 -269
-111 -285 -5 -5 -83 22 -185 64 -97 39 -178 70 -180 68 -2 -2 -78 -188 -169
-414 -91 -225 -175 -431 -186 -457 l-20 -47 -166 67 c-145 58 -165 70 -162 87
3 11 84 215 181 454 97 239 176 439 176 445 0 6 -62 35 -138 65 -75 30 -156
62 -179 72 l-41 17 52 129 c29 70 56 136 59 147 5 11 14 16 25 13 9 -2 246
-97 527 -211z m905 -291 c85 -20 156 -38 158 -40 4 -4 -287 -1266 -293 -1273
-3 -3 -347 76 -352 81 -2 3 282 1236 292 1265 3 7 13 11 22 8 10 -3 88 -21
173 -41z m2315 -117 c3 -13 39 -230 80 -482 41 -253 78 -462 81 -465 3 -3 143
18 312 46 169 28 308 49 310 48 6 -5 54 -306 50 -310 -5 -5 -980 -166 -983
-163 -4 6 -215 1291 -213 1293 6 4 304 53 330 54 21 1 29 -5 33 -21z m-1136
-37 l54 -6 242 -670 c133 -368 241 -671 240 -673 -5 -5 -380 20 -386 26 -4 4
-24 57 -45 117 -20 61 -38 111 -39 113 -5 7 -500 30 -506 24 -3 -4 -28 -56
-55 -115 l-49 -108 -145 7 c-80 4 -166 10 -191 13 l-46 6 158 325 c87 179 228
468 314 642 l154 318 123 -6 c68 -4 147 -9 177 -13z"/>
<path d="M7484 17479 c-74 -10 -137 -41 -200 -101 -65 -61 -97 -119 -114 -204
-22 -113 26 -257 118 -352 158 -162 383 -173 541 -26 176 162 155 437 -46 600
-84 69 -188 98 -299 83z"/>
<path d="M10905 16844 c-525 -58 -1114 -215 -1525 -406 -478 -222 -817 -433
-1200 -747 -137 -112 -155 -129 -330 -303 -497 -495 -870 -1064 -1146 -1748
-95 -234 -210 -640 -260 -918 -62 -342 -67 -398 -71 -859 -4 -391 -3 -449 16
-615 122 -1064 551 -2026 1265 -2832 58 -66 285 -296 371 -376 132 -122 433
-353 631 -483 259 -171 618 -357 914 -475 573 -228 1227 -352 1860 -352 633 0
1289 124 1860 352 295 117 655 305 914 475 204 134 490 353 631 483 587 543
1021 1174 1321 1920 142 352 263 845 315 1285 27 218 36 676 20 895 -88 1151
-524 2184 -1285 3044 -58 66 -285 296 -371 376 -135 125 -439 358 -637 487
-260 169 -611 353 -888 463 -413 166 -903 285 -1370 335 -177 19 -862 19
-1035 -1z m805 -1222 c210 -31 309 -54 493 -116 60 -20 116 -40 125 -45 9 -4
33 -15 52 -24 212 -94 407 -216 576 -359 391 -330 664 -790 778 -1313 36 -164
47 -297 44 -505 l-3 -205 -25 1 c-14 1 -59 9 -100 19 -198 46 -375 64 -632 65
l-208 0 0 123 c0 307 -69 543 -229 783 -236 351 -618 581 -1025 614 -120 10
-382 -2 -415 -19 -9 -5 -34 -12 -56 -16 -63 -11 -152 -43 -252 -91 -353 -169
-630 -491 -739 -860 -66 -226 -74 -526 -18 -724 39 -138 119 -324 185 -425 10
-16 22 -37 26 -45 4 -8 44 -78 89 -155 45 -77 134 -232 199 -345 106 -184 146
-254 206 -357 11 -18 29 -50 40 -70 12 -21 54 -94 94 -163 40 -69 82 -141 92
-160 33 -58 215 -374 227 -392 13 -21 8 -30 -183 -356 -70 -120 -130 -225
-134 -233 -18 -43 -224 -383 -233 -386 -6 -2 -17 9 -25 24 -8 16 -79 141 -160
278 -80 138 -148 257 -152 265 -4 8 -11 22 -17 30 -12 18 -52 88 -255 440 -87
151 -183 318 -213 370 -30 52 -66 115 -80 140 -14 25 -69 119 -122 210 -53 91
-108 185 -122 210 -14 25 -59 104 -101 176 -80 138 -185 350 -212 424 -114
326 -155 547 -155 847 0 500 152 977 443 1388 373 527 988 883 1655 959 68 8
126 17 130 20 12 13 268 -1 412 -22z m1563 -2807 c86 -8 161 -16 166 -19 4 -3
39 -10 77 -16 38 -6 91 -18 119 -26 27 -8 75 -22 105 -30 108 -31 224 -78 360
-146 267 -134 404 -231 611 -438 201 -200 326 -375 450 -625 65 -134 88 -187
111 -265 5 -19 14 -39 19 -44 5 -6 9 -17 9 -26 0 -9 9 -46 19 -81 24 -81 46
-185 69 -319 24 -144 23 -482 -2 -630 -32 -195 -83 -393 -134 -520 -6 -14 -20
-50 -32 -80 -196 -490 -639 -962 -1115 -1189 -38 -18 -83 -40 -100 -48 -118
-58 -362 -132 -524 -158 -47 -8 -92 -17 -100 -20 -38 -15 -339 -24 -487 -15
-161 9 -206 16 -369 52 -270 59 -630 216 -810 352 -22 16 -42 31 -44 33 -2 1
36 44 85 96 170 178 277 328 451 634 14 24 29 45 34 49 5 3 26 -7 47 -23 20
-15 48 -34 61 -41 13 -8 38 -22 56 -32 90 -50 253 -108 390 -137 113 -25 399
-24 509 0 316 71 502 171 721 391 136 137 203 228 277 381 170 348 180 775 26
1135 -17 40 -27 61 -71 141 -111 206 -346 433 -580 558 -78 42 -196 85 -315
115 -125 31 -287 36 -1323 36 l-1036 0 -14 27 c-8 15 -73 129 -145 253 -72
124 -134 232 -137 240 -4 8 -16 29 -27 45 -11 17 -23 37 -27 45 -4 8 -34 60
-66 115 -77 130 -127 223 -127 235 0 7 472 10 1328 10 1080 0 1356 -3 1485
-15z m-4418 -267 c67 -234 156 -434 312 -701 35 -60 63 -110 63 -112 0 -2 -24
-15 -54 -28 -121 -56 -294 -191 -407 -319 -234 -266 -351 -567 -353 -913 -1
-131 12 -245 41 -345 83 -295 218 -512 435 -700 254 -221 524 -330 853 -346
325 -16 628 80 897 283 69 53 205 189 263 263 37 49 175 265 175 275 0 2 52
92 115 200 63 108 115 198 115 199 0 2 68 119 150 260 83 142 150 259 150 260
0 2 35 63 78 137 121 206 232 398 265 459 17 30 41 72 54 93 l24 37 544 -2
c346 -2 548 -7 554 -13 6 -7 -32 -80 -110 -214 -65 -112 -119 -205 -119 -207
0 -1 -61 -107 -135 -234 -74 -127 -135 -233 -135 -234 0 -2 -74 -130 -165
-285 -91 -156 -165 -284 -165 -286 0 -1 -37 -65 -81 -141 -106 -182 -225 -388
-257 -444 -215 -390 -386 -613 -617 -809 -318 -270 -744 -471 -1130 -531 -33
-5 -82 -15 -110 -21 -66 -14 -534 -14 -600 1 -27 6 -79 15 -115 20 -112 16
-411 99 -434 121 -6 5 -17 9 -25 9 -29 0 -338 160 -435 225 -512 343 -864 858
-994 1455 -50 226 -57 289 -56 505 0 212 14 345 60 545 72 309 231 643 437
915 157 206 441 457 647 569 125 69 235 124 240 121 4 -2 15 -32 25 -67z"/>
<path d="M6446 7474 c-94 -35 -172 -67 -174 -69 -3 -3 32 -46 78 -97 46 -51
89 -99 96 -107 10 -11 28 17 98 157 47 95 86 174 86 177 0 9 -11 5 -184 -61z"/>
<path d="M15834 7122 c-35 -17 -254 -195 -254 -207 0 -2 45 -55 99 -119 l99
-115 110 95 c155 133 183 185 142 269 -40 83 -118 113 -196 77z"/>
<path d="M7608 6591 l-87 -129 102 -70 c128 -87 177 -112 222 -112 91 0 172
100 151 185 -11 42 -72 100 -187 180 -59 41 -109 75 -111 75 -2 -1 -42 -59
-90 -129z"/>
<path d="M14504 6015 c16 -202 30 -305 40 -305 6 0 64 29 129 63 l118 63 -118
104 c-65 57 -131 115 -147 129 l-29 26 7 -80z"/>
<path d="M11068 5210 c-43 -93 -78 -173 -78 -178 0 -9 270 -25 278 -17 5 4
-107 346 -117 357 -3 4 -41 -69 -83 -162z"/>
</g>
</svg>
